<svg xmlns="http://www.w3.org/2000/svg" viewBox="0 0 512 512" role="img" aria-label="Confidence Game flame">
  <defs>
    <linearGradient id="g" x1="0%" y1="0%" x2="100%" y2="100%">
      <stop offset="0%" stop-color="#ff4d00"/>
      <stop offset="60%" stop-color="#ff1a1a"/>
      <stop offset="100%" stop-color="#0a0000"/>
    </linearGradient>
    <filter id="shadow" x="-10%" y="-10%" width="120%" height="120%">
      <feDropShadow dx="0" dy="8" stdDeviation="10" flood-color="#000" flood-opacity="0.45"/>
    </filter>
  </defs>
  <rect x="0" y="0" width="512" height="512" rx="80" fill="#0a0000"/>
  <rect x="18" y="18" width="476" height="476" rx="68" fill="#140000" stroke="#ff1a1a" stroke-width="10" opacity="0.9"/>
  <g filter="url(#shadow)" transform="translate(96 52)">
    <path d="M160 56c0 92-80 88-80 196 0 60 44 116 120 116s120-56 120-116c0-82-76-108-92-180-8 30-36 60-68 72 12-20 0-40 0-88z" fill="url(#g)"/>
    <path d="M200 122c-10 20-34 38-62 46 10-10 14-26 6-52 16 10 32 10 56-6z" fill="#ffcc66" opacity="0.8"/>
  </g>
  <text x="256" y="430" font-family="'Segoe UI', sans-serif" font-size="72" font-weight="900" fill="#ffaa00" text-anchor="middle" letter-spacing="2">BLUSH</text>
</svg>
